<svg width="256" height="256" viewBox="0 0 256 256" fill="none" xmlns="http://www.w3.org/2000/svg">
  <!-- Background circle -->
  <circle cx="128" cy="128" r="120" fill="url(#gradient)" stroke="#4F46E5" stroke-width="8"/>
  
  <!-- Head -->
  <circle cx="128" cy="100" r="40" fill="#F3F4F6" stroke="#1F2937" stroke-width="3"/>
  
  <!-- Hair -->
  <path d="M88 80 Q128 50 168 80 Q160 60 128 55 Q96 60 88 80" fill="#1F2937"/>
  
  <!-- Eyes -->
  <circle cx="115" cy="95" r="4" fill="#1F2937"/>
  <circle cx="141" cy="95" r="4" fill="#1F2937"/>
  
  <!-- Glasses -->
  <circle cx="115" cy="95" r="12" fill="none" stroke="#4F46E5" stroke-width="2"/>
  <circle cx="141" cy="95" r="12" fill="none" stroke="#4F46E5" stroke-width="2"/>
  <line x1="127" y1="95" x2="133" y2="95" stroke="#4F46E5" stroke-width="2"/>
  
  <!-- Smile -->
  <path d="M115 105 Q128 115 141 105" stroke="#1F2937" stroke-width="2" fill="none"/>
  
  <!-- Body -->
  <rect x="88" y="140" width="80" height="60" rx="20" fill="#4F46E5" stroke="#312E81" stroke-width="2"/>
  
  <!-- Arms -->
  <circle cx="68" cy="160" r="15" fill="#F3F4F6" stroke="#1F2937" stroke-width="2"/>
  <circle cx="188" cy="160" r="15" fill="#F3F4F6" stroke="#1F2937" stroke-width="2"/>
  
  <!-- Laptop -->
  <rect x="100" y="165" width="56" height="35" rx="4" fill="#1F2937"/>
  <rect x="95" y="200" width="66" height="8" rx="4" fill="#4B5563"/>
  
  <!-- Code on screen -->
  <rect x="105" y="170" width="20" height="2" fill="#10B981"/>
  <rect x="130" y="170" width="15" height="2" fill="#3B82F6"/>
  <rect x="105" y="175" width="25" height="2" fill="#8B5CF6"/>
  <rect x="135" y="175" width="10" height="2" fill="#F59E0B"/>
  <rect x="105" y="180" width="18" height="2" fill="#EF4444"/>
  <rect x="128" y="180" width="22" height="2" fill="#06B6D4"/>
  
  <!-- Gradient definition -->
  <defs>
    <linearGradient id="gradient" x1="0%" y1="0%" x2="100%" y2="100%">
      <stop offset="0%" style="stop-color:#6366F1;stop-opacity:1" />
      <stop offset="100%" style="stop-color:#8B5CF6;stop-opacity:1" />
    </linearGradient>
  </defs>
</svg>